/* XPM */
static char *fe6de002755c4d23c5c279f43d46e3f2HoYQg0HWxLOxAdfn[] = {
/* columns rows colors chars-per-pixel */
"128 128 5 1 ",
"  c None",
". c black",
"X c #464646",
"o c #9C5A3C",
"O c #E5AA7A",
/* pixels */
"                                                                                                                                ",
"                                                                                                                                ",
"                                                                                                                                ",
"                                                                                                                                ",
"                                                                                                                                ",
"                                                                ..                                                              ",
"                                                               ...                                                              ",
"                                                               ....                                                             ",
"                                                               ....                                                             ",
"                                                              ......                                                            ",
"                                                              ......                                                            ",
"                                                              ..XX..                                                            ",
"                                                              ..XX..                                                            ",
"                                                              ..XX...                                                           ",
"                                                              ..XX...                                                           ",
"                                                              ..XXX..                                                           ",
"                                                              ..XXX..                                                           ",
"                                                              ..XXXX..                                                          ",
"                                                               ..XXX..                                                          ",
"                                                               ..XXX..                                                          ",
"                                                               ..XXX..                                                          ",
"                                                               ..XXXX..                                                         ",
"                                                                ..XXX..                                                         ",
"                                                                ..XXX..                                                         ",
"                                                                ..XXX..                                                         ",
"                                                                ..XXXX..                                                        ",
"                                                                 ..XXX..                                                        ",
"                                                                 ..XXX..                                                        ",
"                                                                 ...XX..                                                        ",
"                                                                 ...XXX..                                                       ",
"                                                                  ..XXX..                                                       ",
"                                                                  ..XXX..                                                       ",
"                                                                  ...XX..                                                       ",
"                                                                  ...XX...                                                      ",
"                                                                   ..XXX..                                                      ",
"                                                                   ..XXX..                                                      ",
"                                                                    .XXX..                                                      ",
"                                                                    ..XX...                                                     ",
"                                                                    ..XXX..                                                     ",
"                                                                    ..XXX..                                                     ",
"                                                                     .XXX..                                                     ",
"                                                                     ..XX...                                                    ",
"                                                                     ..XXX..                                                    ",
"                                                                     ..XXX..                                                    ",
"                                                                      .XXX..                                                    ",
"                                                                     o..XX...                                                   ",
"                                                                     oo.XXX..                                                   ",
"                                                                      o.XXX..                                                   ",
"                                                                     oo.XXX..                                                   ",
"                                                                     oo..XX...                                                  ",
"                                                                     ooo.XX...                                                  ",
"                                                                     ooo.XXX..                                                  ",
"                                                                     ooo.XXX..                                                  ",
"                                                                      oo.XXX...                                                 ",
"                                                                      ooo.XX...                                                 ",
"                                                                     .ooo.XXX..                                                 ",
"                                                                     ..oo.XXX..                                                 ",
"                                                                     ..oo.XXX...                                                ",
"                                                                     ..ooo.XX...                                                ",
"                                                                     ...oo.XXX..                                                ",
"                                                                     ...oo.XXX..                                                ",
"                                                                    O...oo.XXX..                                                ",
"                                                                    OO..ooo.XX..                                                ",
"                                                                    OO..ooo.XXX..                                               ",
"                                                                    OO..ooo.XXX..      ..                                       ",
"                                                                    OOO..oo.XXX...    ...                                       ",
"                                                                 OOO.OO..ooo.XX...    ...                                       ",
"                                                                 OOO.OO..ooo.XXX..    ....                                      ",
"                                                                 OOOO....ooo.XXX..   ..XX.                                      ",
"                                                                 OOOO....ooo.XXX.. ...XXX.                                      ",
"                                                                  .O.....oooo.XX....XXXXX.                                      ",
"                                                                  ........ooo.XX..XXXXXXX.                                      ",
"                                                                 O........ooo.XX..XXXXXXX.                                      ",
"                                                                 O........ooo.XX..XXXXXXX.                                      ",
"                                                                 O.........oooXX..XXXXXXX.                                      ",
"                                                                 OOO.......ooo.XX.XXXXXXX.                                      ",
"                                                                 OOO.......ooo.XX.XXXXXXX.                                      ",
"                                                                O..........ooooXXX.XXXXXX.                                      ",
"                                                                O...........oooXXX.XXXXXX.                                      ",
"                                                                OO..........ooo.XX.XXXXXX                                       ",
"                                                                .O...........oo.XX.XXXXX.                                       ",
"                                                                .O........OO.oooXX.XXXXX.                                       ",
"                                                                .........OOO..ooXX.XXXXX.                                       ",
"                                                                .........OOO..oo.XX.XXXX.                                       ",
"                                                                 ........OOOO.oo.XX..XXX.                                       ",
"                                                                 .......OOOOO.oooXX..XXX.                                       ",
"                                                                 .......OOOOOOoooXX..XXX.                                       ",
"                                                                  .....OOOOOOO.oo.XX.XXX.                                       ",
"                                                                  .....OOOOOO..oo.XX.XXX.O                                      ",
"                                                                   ...   OOOO..oooXXX.XX.OO                                     ",
"                                                                     .     OO..oooXXX.XXXOOO                                    ",
"                                                                           OO.oooo.XX.XXXOOO                                    ",
"                                                                            O..ooo.XX..XXXOOO                                   ",
"                                                                             O.oooo...XXXXOOOO                                  ",
"                                                                              .oooo....XXX.OOO                                  ",
"                                                                              .oooo....XXX.OOOO                                 ",
"                                                                              .oooo....XXXXOOOO                                 ",
"                                                                             O..oooo...XXXX.OOOO                                ",
"                                                                            OOO.ooooo..XXXX.OOOO                                ",
"                                                                            O OO.oooo..XXXX.OOOOO                               ",
"                                                                            OOOO.oooo..XXXXX.OOOO                               ",
"                                                                            .OOO..oooo..XXXX..OOOO                              ",
"                                                                            .OOO..oooo..XXXXX.OOOOO                             ",
"                                                                           O..OO...oooo.XXXXX.OOOOO                             ",
"                                                                           OO.OO...ooo..XXXXXX.OOOO                             ",
"                                                                           OO.OO..Ooooo.XXXXXX.OOOOO                            ",
"                                                                           OO.OOO.OOooo.XXXXXX.OOOOOO                           ",
"                                                                         OO.OOOOO.OOOoooXXXXXX..OOOOO                           ",
"                                                                         OO.OOOOO.OOOoooXXXXXX..OOOOOO                          ",
"                                                                         .OO.OOOOOOOOoooXXXXXX..OOOOOO                          ",
"                                                                         ..O.OOOOOOOOoooXXXXXX..OOOOOOO                         ",
"                                                                         O.OOOOOOOOOOoooXXXXXX..OOOOOOO                         ",
"                                                                         O.OOOOOOOOOOooo.XXX.X..OOOOOOO                         ",
"                                                                         O..OOOOOOOOOooo.XXX..o.OOOOOOO                         ",
"                                                                         OO.OOOOOOOO.oooo.XX..o..OOOOOOO                        ",
"                                                                          O.OOOOOOOO.oooooX...oo.OOOOOOO                        ",
"                                                                          OOOOOOOOO..ooooo..o..oo.OOOOOOO                       ",
"                                                                          OOOOOOOOO...oooooooo.oooOOOOOOO                       ",
"                                                                          .OOOOOOOO....oooooooo.oo.OOOOOO                       ",
"                                                                          .OOOOOOOO....oooooooo.oo..OOOOOO                      ",
"                                                                          .OOOOOOOO....oooooooooooo..OOOOO                      ",
"                                                                          .OOOOOOOO....ooooooooo.oo..OOOOOO                     ",
"                                                                          .OOOOOOOO....ooooooooo.ooo..OOOOO                     ",
"                                                                          .OOOOOOOO....oooooooooo.oo...OOOOO                    ",
"                                                                          .OOOOOOOOO...oooooooooo....o.OOOOO                    ",
"                                                                          .OOOOOOOOOO..oooooooooo....o.OOOOO                    ",
"                                                                           OOOOOOOOOOO.ooooooooooo...o..OOOOO                   ",
"                                                                           OOOOOOOOOOO.ooooooooooo......OOOOO                   "
};
