/* XPM */
static char *_78654c9c1a846e3eefaa6681b2fc6c2t0SGeM9awWYaLyHH[] = {
/* columns rows colors chars-per-pixel */
"128 128 5 1 ",
"  c None",
". c black",
"X c #464646",
"o c #9C5A3C",
"O c #E5AA7A",
/* pixels */
"                                                                                                                                ",
"                                                                                                                                ",
"                                                                                                                                ",
"                                                                                                                                ",
"                                                                                                                                ",
"                                                                                                                                ",
"                                                                                                                                ",
"                                                                                                                                ",
"                                                                                                                                ",
"                                                                                                                                ",
"                                                                                                                                ",
"                                                                                                                                ",
"                                                                                                                                ",
"                                                                                                                                ",
"                                                                                                                                ",
"                                                                                                                                ",
"                                                                                                                                ",
"                                                                                                                                ",
"                                                                                                                                ",
"                                                                                                                                ",
"                                                                                                                                ",
"                                                                                                                                ",
"                                                                                                                                ",
"                                                                                                                                ",
"                                                                                                                                ",
"                                                                                                                                ",
"                                                                                                                                ",
"                                                                                                                                ",
"                                                                                                                                ",
"                                                                                                                                ",
"                                                                                                                                ",
"                                                                                                                                ",
"                                                                                                                                ",
"                                                                                                                                ",
"                                                                                                                                ",
"                                                                                                                                ",
"                                                                                                                                ",
"                                                                                                                                ",
"                                                                                                                                ",
"                                                                                                                                ",
"                                                                                                                                ",
"                                                                                                                                ",
"                                                                                                                                ",
"                                                                                                                                ",
"                                                                                                                                ",
"                                                                                                                                ",
"                                                                                                                                ",
"                                                                                                                                ",
"                                                                                                                                ",
"                                                                                                                                ",
"                                                                                                                                ",
"                                                                                                                                ",
"                                                                                                                                ",
"                                 ........                                                                                       ",
"                                ..........                                                                                      ",
"                                ..........                                                                                      ",
"                                ....XXX...                                                                                      ",
"                                ....XXX....                                                                                     ",
"                                ....XXX....                                                                                     ",
"                                ....XXXXX..                                                                                     ",
"                                 .....XXXX....                                                                                  ",
"                                 .....XXXX....                                                                                  ",
"                                 .....XXXXX.....                                                                                ",
"                                    ...XXXX.....                                                                                ",
"                                    ...XXXX.....                                                                                ",
"                                      ...XXXXX...                                                                               ",
"                                      ....XXXX...                                                                               ",
"                                       ...XXXXXX..                                                                              ",
"                                       ...XXXXXX..                                                                              ",
"                                       ....XXXXX....                                                                            ",
"                                         ..XXXXXX...                                                                            ",
"                                         ..XXXXXX...                                                                            ",
"                                          ....XXX......                                                                         ",
"                                           ...XXXX.....                                                                         ",
"                                           .....XX......                                                                        ",
"                                           .....XXXX....                                                                        ",
"                                              ..XXXX....                                                                        ",
"                                           ooo...XXX.....                                                                       ",
"                                              oo.XXXXXX..                                                                       ",
"                                           ooooo.XXXXXX..                                                                       ",
"                                           oooooo.XXXXXX...                                                                     ",
"                                           oooooo.XXXXXX...                                                                     ",
"                                              oooo..XXXX....                                                                    ",
"                                           ...oooo..XXXXX...                                                                    ",
"                                           .....oo..XXXXX...                                                                    ",
"                                           .....oooo...XX.....                                                                  ",
"                                          O......ooo...XXXX...                                                                  ",
"                                          OOOO...oooooo.XXX...                                                                  ",
"                                          OOOO...oooooo.XXXX....          ...                                                   ",
"                                          OOOOOO..ooooo.XXXX......       ....                                                   ",
"                                      OOOO.OOOOO..oooooo.XXX......       ....                                                   ",
"                                      OOOOO.......oooooo.XXXXX....    ....XXX..                                                 ",
"                                      OOOOO.......oooooo.XXXXX.... ......XXXX..                                                 ",
"                                      O.............ooooo..XXX....XXXXXXXXXXX..                                                 ",
"                                      O.............ooooo..XXX....XXXXXXXXXXX..                                                 ",
"                                      OOOO.............oooo.XXXX..XXXXXXXXXXX..                                                 ",
"                                      OOOO.............oooo.XXXX..XXXXXXXXXXX..                                                 ",
"                                    OO..................ooooXXXXXX.XXXXXXXXXX..                                                 ",
"                                    OOO.................oooo..XXXX.XXXXXXXXXX                                                   ",
"                                    ..............OOOOOO...oooXXXX.XXXXXXXXX.                                                   ",
"                                    ..............OOOOOO...ooo..XXX..XXXXXXX.                                                   ",
"                                      ...........OOOOOOOO..oooooXXX...XXXXXX.                                                   ",
"                                      ...........OOOOOOOOOOoooooXXX...XXXXXX.                                                   ",
"                                       .........OOOOOOOOOOO.oooo..XXX.XXXXXX.                                                   ",
"                                         .....    OOOOOOO...ooooooXXXX...XXX.OOO                                                ",
"                                           ...         OO...ooooooXXXX...XXXXOOOOOO                                             ",
"                                                         OO.ooooooo......XXXXXXOOOOOOO                                          ",
"                                                           .ooooooo.......XXXXX.OOOOOO                                          ",
"                                                           .ooooooo.......XXXXXXOOOOOOO                                         ",
"                                                         OO...ooooooo.....XXXXXX...OOOOO                                        ",
"                                                        O  OOO..oooooo....XXXXXX...OOOOOOOO                                     ",
"                                                        OOOOOO..oooooo....XXXXXXXXX.OOOOOOO                                     ",
"                                                        .OOOOO....ooooooo...XXXXXXX...OOOOOOO                                   ",
"                                                       OO..OOO.....oooooo...XXXXXXXXXX.OOOOOOO                                  ",
"                                                       OO..OOOOO..OOOooooo..XXXXXXXXXX.OOOOOOOOOO                               ",
"                                                  OOOOO.OOOOOOOO..OOOOooooooXXXXXXXXXX..OOOOOOOOO                               ",
"                                                  ..OOOO.OOOOOOOOOOOOOooooooXXXXXXXXXX..OOOOOOOOOO                              ",
"                                                  .....O.OOOOOOOOOOOOOooooooXXXXXXXXXX..OOOOOOOOOOOOO                           ",
"                                                  OO...OOOOOOOOOOOOOOOooooooXXXXXXXXXX..OOOOOOOOOOOOO                           ",
"                                                  OOOOO.OOOOOOOOOOOOO.ooooooo..XXXX...o....OOOOOOOOOOO                          ",
"                                                    OOOOOOOOOOOOOOO...ooooooooo....o...oooo..OOOOOOOOOOO                        ",
"                                                    OOOOOOOOOOOOOOO......ooooooooooooo.ooooooOOOOOOOOOOO                        ",
"                                                    ...OOOOOOOOOOOO.......ooooooooooooo.ooooo.OOOOOOOOOO                        ",
"                                                    ...OOOOOOOOOOOO.......oooooooooooooooooooo...OOOOOOOO                       ",
"                                                    ...OOOOOOOOOOOO.......oooooooooooooo...ooo...OOOOOOOOOO                     ",
"                                                    ...OOOOOOOOOOOO.......ooooooooooooooooo..oo......OOOOOOO                    ",
"                                                    ...OOOOOOOOOOOOOOO....ooooooooooooooooo......o...OOOOOOO                    ",
"                                                       OOOOOOOOOOOOOOOOOO.ooooooooooooooooooo.........OOOOOOOOO                 "
};
