/* XPM */
static char *_fe25aeb2d974819ff2e7173949e371105BZtXWfAOgrndXa[] = {
/* columns rows colors chars-per-pixel */
"128 128 5 1 ",
"  c None",
". c black",
"X c #464646",
"o c #9C5A3C",
"O c #E5AA7A",
/* pixels */
"                                                                                                                                ",
"                                                                                                                                ",
"                                                                                                                                ",
"                                                                                                                                ",
"                                                                                                                                ",
"                                                              ..                                                                ",
"                                                              ...                                                               ",
"                                                             ....                                                               ",
"                                                             ....                                                               ",
"                                                            ......                                                              ",
"                                                            ......                                                              ",
"                                                            ..XX..                                                              ",
"                                                            ..XX..                                                              ",
"                                                           ...XX..                                                              ",
"                                                           ...XX..                                                              ",
"                                                           ..XXX..                                                              ",
"                                                           ..XXX..                                                              ",
"                                                          ..XXXX..                                                              ",
"                                                          ..XXX..                                                               ",
"                                                          ..XXX..                                                               ",
"                                                          ..XXX..                                                               ",
"                                                         ..XXXX..                                                               ",
"                                                         ..XXX..                                                                ",
"                                                         ..XXX..                                                                ",
"                                                         ..XXX..                                                                ",
"                                                        ..XXXX..                                                                ",
"                                                        ..XXX..                                                                 ",
"                                                        ..XXX..                                                                 ",
"                                                        ..XX...                                                                 ",
"                                                       ..XXX...                                                                 ",
"                                                       ..XXX..                                                                  ",
"                                                       ..XXX..                                                                  ",
"                                                       ..XX...                                                                  ",
"                                                      ...XX...                                                                  ",
"                                                      ..XXX..                                                                   ",
"                                                      ..XXX..                                                                   ",
"                                                      ..XXX.                                                                    ",
"                                                     ...XX..                                                                    ",
"                                                     ..XXX..                                                                    ",
"                                                     ..XXX..                                                                    ",
"                                                     ..XXX.                                                                     ",
"                                                    ...XX..                                                                     ",
"                                                    ..XXX..                                                                     ",
"                                                    ..XXX..                                                                     ",
"                                                    ..XXX.                                                                      ",
"                                                   ...XX..o                                                                     ",
"                                                   ..XXX.oo                                                                     ",
"                                                   ..XXX.o                                                                      ",
"                                                   ..XXX.oo                                                                     ",
"                                                  ...XX..oo                                                                     ",
"                                                  ...XX.ooo                                                                     ",
"                                                  ..XXX.ooo                                                                     ",
"                                                  ..XXX.ooo                                                                     ",
"                                                 ...XXX.oo                                                                      ",
"                                                 ...XX.ooo                                                                      ",
"                                                 ..XXX.ooo.                                                                     ",
"                                                 ..XXX.oo..                                                                     ",
"                                                ...XXX.oo..                                                                     ",
"                                                ...XX.ooo..                                                                     ",
"                                                ..XXX.oo...                                                                     ",
"                                                ..XXX.oo...                                                                     ",
"                                                ..XXX.oo...O                                                                    ",
"                                                ..XX.ooo..OO                                                                    ",
"                                               ..XXX.ooo..OO                                                                    ",
"                                       ..      ..XXX.ooo..OO                                                                    ",
"                                       ...    ...XXX.oo..OOO                                                                    ",
"                                       ...    ...XX.ooo..OO.OOO                                                                 ",
"                                      ....    ..XXX.ooo..OO.OOO                                                                 ",
"                                      .XX..   ..XXX.ooo....OOOO                                                                 ",
"                                      .XXX... ..XXX.ooo....OOOO                                                                 ",
"                                      .XXXXX....XX.oooo.....O.                                                                  ",
"                                      .XXXXXXX..XX.ooo........                                                                  ",
"                                      .XXXXXXX..XX.ooo........O                                                                 ",
"                                      .XXXXXXX..XX.ooo........O                                                                 ",
"                                      .XXXXXXX..XXooo.........O                                                                 ",
"                                      .XXXXXXX.XX.ooo.......OOO                                                                 ",
"                                      .XXXXXXX.XX.ooo.......OOO                                                                 ",
"                                      .XXXXXX.XXXoooo..........O                                                                ",
"                                      .XXXXXX.XXXooo...........O                                                                ",
"                                       XXXXXX.XX.ooo..........OO                                                                ",
"                                       .XXXXX.XX.oo...........O.                                                                ",
"                                       .XXXXX.XXooo.OO........O.                                                                ",
"                                       .XXXXX.XXoo..OOO.........                                                                ",
"                                       .XXXX.XX.oo..OOO.........                                                                ",
"                                       .XXX..XX.oo.OOOO........                                                                 ",
"                                       .XXX..XXooo.OOOOO.......                                                                 ",
"                                       .XXX..XXoooOOOOOO.......                                                                 ",
"                                       .XXX.XX.oo.OOOOOOO.....                                                                  ",
"                                      O.XXX.XX.oo..OOOOOO.....                                                                  ",
"                                     OO.XX.XXXooo..OOOO   ...                                                                   ",
"                                    OOOXXX.XXXooo..OO     .                                                                     ",
"                                    OOOXXX.XX.oooo.OO                                                                           ",
"                                   OOOXXX..XX.ooo..O                                                                            ",
"                                  OOOOXXXX...oooo.O                                                                             ",
"                                  OOO.XXX....oooo.                                                                              ",
"                                 OOOO.XXX....oooo.                                                                              ",
"                                 OOOOXXXX....oooo.                                                                              ",
"                                OOOO.XXXX...oooo..O                                                                             ",
"                                OOOO.XXXX..ooooo.OOO                                                                            ",
"                               OOOOO.XXXX..oooo.OO O                                                                            ",
"                               OOOO.XXXXX..oooo.OOOO                                                                            ",
"                              OOOO..XXXX..oooo..OOO.                                                                            ",
"                             OOOOO.XXXXX..oooo..OOO.                                                                            ",
"                             OOOOO.XXXXX.oooo...OO..O                                                                           ",
"                             OOOO.XXXXXX..ooo...OO.OO                                                                           ",
"                            OOOOO.XXXXXX.ooooO..OO.OO                                                                           ",
"                           OOOOOO.XXXXXX.oooOO.OOO.OO                                                                           ",
"                           OOOOO..XXXXXXoooOOO.OOOOO.OO                                                                         ",
"                          OOOOOO..XXXXXXoooOOO.OOOOO.OO                                                                         ",
"                          OOOOOO..XXXXXXoooOOOOOOOO.OO.                                                                         ",
"                         OOOOOOO..XXXXXXoooOOOOOOOO.O..                                                                         ",
"                         OOOOOOO..XXXXXXoooOOOOOOOOOO.O                                                                         ",
"                         OOOOOOO..X.XXX.oooOOOOOOOOOO.O                                                                         ",
"                         OOOOOOO.o..XXX.oooOOOOOOOOO..O                                                                         ",
"                        OOOOOOO..o..XX.oooo.OOOOOOOO.OO                                                                         ",
"                        OOOOOOO.oo...Xooooo.OOOOOOOO.O                                                                          ",
"                       OOOOOOO.oo..o..ooooo..OOOOOOOOO                                                                          ",
"                       OOOOOOOooo.oooooooo...OOOOOOOOO                                                                          ",
"                       OOOOOO.oo.oooooooo....OOOOOOOO.                                                                          ",
"                      OOOOOO..oo.oooooooo....OOOOOOOO.                                                                          ",
"                      OOOOO..oooooooooooo....OOOOOOOO.                                                                          ",
"                     OOOOOO..oo.ooooooooo....OOOOOOOO.                                                                          ",
"                     OOOOO..ooo.ooooooooo....OOOOOOOO.                                                                          ",
"                    OOOOO...oo.oooooooooo....OOOOOOOO.                                                                          ",
"                    OOOOO.o....oooooooooo...OOOOOOOOO.                                                                          ",
"                    OOOOO.o....oooooooooo..OOOOOOOOOO.                                                                          ",
"                   OOOOO..o...ooooooooooo.OOOOOOOOOOO                                                                           ",
"                   OOOOO......ooooooooooo.OOOOOOOOOOO                                                                           "
};
