/* XPM */
static char *_853076ea237484882bf4a7a3c34c85903TrsksG9UNKLQ9t[] = {
/* columns rows colors chars-per-pixel */
"128 128 5 1 ",
"  c None",
". c black",
"X c #464646",
"o c #9C5A3C",
"O c #E5AA7A",
/* pixels */
"                                                                                                                                ",
"                                                                                                                                ",
"                                                                                                                                ",
"                                                                                                                                ",
"                                                                                                                                ",
"                                                                                                                                ",
"                                                                                                                                ",
"                                                                                                                                ",
"                                                                                                                                ",
"                                                                                                                                ",
"                                                                                                                                ",
"                                                                                                                                ",
"                                                                                                                                ",
"                                                                                                                                ",
"                                                                                                                                ",
"                                                                                                                                ",
"                                                                                                                                ",
"                                                                                                                                ",
"                                                                                                                                ",
"                                                                                                                                ",
"                                                                                                                                ",
"                                                                                                                                ",
"                                                                                                                                ",
"                                                                                                                                ",
"                                                                                                                                ",
"                                                                                                                                ",
"                                                                                                                                ",
"                                                                                                                                ",
"                                                                                                                                ",
"                                                                                                                                ",
"                                                                                                                                ",
"                                                                                                                                ",
"                                                                                                                                ",
"                                                                                                                                ",
"                                                                                                                                ",
"                                                                                                                                ",
"                                                                                                                                ",
"                                                                                                                                ",
"                                                                                                                                ",
"                                                                                                                                ",
"                                                                                                                                ",
"                                                                                                                                ",
"                                                                                                                                ",
"                                                                                                                                ",
"                                                                                                                                ",
"                            ......                                                                                              ",
"                            .......                                                                                             ",
"                          ...........                                                                                           ",
"                          ...........                                                                                           ",
"                          .....XXX...                                                                                           ",
"                          .....XXX....                                                                                          ",
"                          .....XXX....                                                                                          ",
"                          .....XXXX...                                                                                          ",
"                            ....XXXXX....                                                                                       ",
"                            ....XXXXX....                                                                                       ",
"                            ....XXXXXX.....                                                                                     ",
"                               ...XXXX.....                                                                                     ",
"                               ...XXXX.....                                                                                     ",
"                                ...XXXXXX...                                                                                    ",
"                                ...XXXXXX...                                                                                    ",
"                                .....XXXX...                                                                                    ",
"                                  ...XXXXXX...                                                                                  ",
"                                  ...XXXXXX...                                                                                  ",
"                                  ....XXXXX....                                                                                 ",
"                                   ...XXXXXX...                                                                                 ",
"                                   ...XXXXXX...                                                                                 ",
"                                     ....XXX......                                                                              ",
"                                     ....XXXXX....                                                                              ",
"                                      ...XXXXX....                                                                              ",
"                                      .....XXX.....                                                                             ",
"                                      .....XXXX....                                                                             ",
"                                         ..XXXX....                                                                             ",
"                                      ooo...XXX......                                                                           ",
"                                         oo.XXXXXX...                                                                           ",
"                                      ooooo.XXXXXX...                                                                           ",
"                                      oooooo..XXXXX...                                                                          ",
"                                      oooooo..XXXXX...                                                                          ",
"                                         ooooo.XXXX.....                                                                        ",
"                                      ...ooooo.XXXXXX...                                                                        ",
"                                      .....ooo.XXXXXX...                                                                        ",
"                                      .....oooo...XXX....                                                                       ",
"                                      ......ooo...XXXX...                                                                       ",
"                                     O......ooo...XXXX...                                                                       ",
"                                     OOOO...oooooo.XXX...                                                                       ",
"                                     OOOO...oooooo.XXXXX....           ...                                                      ",
"                                     OOOOOO...oooo.XXXXX......       .....                                                      ",
"                                OOOOO.OOOOO...ooooo..XXX......       .....                                                      ",
"                                OOOOOO........ooooo..XXXX.....    .....XXX.                                                     ",
"                                OOOOOO........ooooo..XXXX..... ......XXXXX.                                                     ",
"                                  .............oooooo.XXX.....XXXXXXXXXXXX.                                                     ",
"                                OO.............oooooo.XXX.....XXXXXXXXXXXX.                                                     ",
"                                OO.............oooooo.XXX.....XXXXXXXXXXXX.                                                     ",
"                                OOOOO.............oooo..XXXX..XXXXXXXXXXXX.                                                     ",
"                                OOOOO.............oooo..XXXX..XXXXXXXXXXXX.                                                     ",
"                               O...................oooooXXXXXX.XXXXXXXXXXX.                                                     ",
"                               OOO.................ooooo.XXXXX.XXXXXXXXXXX                                                      ",
"                               ...............OOOOO...oooXXXXX.XXXXXXXXX..                                                      ",
"                               ...............OOOOO...ooo...XXX..XXXXXXX..                                                      ",
"                                ............OOOOOOOOO.ooooooXXX...XXXXXX..                                                      ",
"                                ............OOOOOOOOOOooooooXXX...XXXXXX..                                                      ",
"                                  .........OOOOOOOOOOO..oooo..XXX.XXXXXX..                                                      ",
"                                   ......     OOOOOOO...ooooooXXXX...XXX..OOO                                                   ",
"                                      ...         OOO...ooooooXXXX...XXXXXOOOOOO                                                ",
"                                                   OO...oooooo.XXX.....XXXXOOOOOO                                               ",
"                                                     O..ooooooo......XXXXXXOOOOOOOO                                             ",
"                                                      ..ooooooo........XXXX..OOOOOO                                             ",
"                                                      ..ooooooo........XXXXXXOOOOOOO                                            ",
"                                                     O...oooooooo......XXXXXX...OOOOOO                                          ",
"                                                   OO OOO...oooooo.....XXXXXX...OOOOOOOOO                                       ",
"                                                   OOOOOO...oooooo.....XXXXXXXXX.OOOOOOOO                                       ",
"                                                   ..OOOO.....ooooooo...XXXXXXXX...OOOOOOO                                      ",
"                                                  O...OOO......oooooooo.XXXXXXXXX..OOOOOOOOO                                    ",
"                                                  OOO.OOO......oooooo...XXXXXXXXXXX.OOOOOOOO                                    ",
"                                                  OOO.OOOOOO..OOOoooooo.XXXXXXXXXXX.OOOOOOOOOOO                                 ",
"                                              OOOO.OOOOOOOOO..OOOOooooooXXXXXXXXXXX...OOOOOOOOO                                 ",
"                                              .OOOO..OOOOOOOOOOOOOooooooXXXXXXXXXXX...OOOOOOOOOO                                ",
"                                              ....O..OOOOOOOOOOOOOooooooXXXXXXXXXXX...OOOOOOOOOOOOO                             ",
"                                              O...OOOOOOOOOOOOOOOOooooooXXXXXXXXXXX...OOOOOOOOOOOOO                             ",
"                                              OOOO.OOOOOOOOOOOOOO.oooooooo.XXXXX...o.....OOOOOOOOOOOO                           ",
"                                               OOOOOOOOOOOOOOOO...ooooooooo.....o...ooooo.OOOOOOOOOOOO                          ",
"                                               OOOOOOOOOOOOOOOO......oooooooooooooo.ooooooOOOOOOOOOOOO                          ",
"                                               ...OOOOOOOOOOOOO........ooooooooooooo..oooo..OOOOOOOOOO                          ",
"                                               ...OOOOOOOOOOOOO........ooooooooooooooooooooo...OOOOOOOOO                        ",
"                                               ...OOOOOOOOOOOOO........ooooooooooooooo...ooo...OOOOOOOOOO                       ",
"                                               ...OOOOOOOOOOOOO........oooooooooooooooooo.ooo......OOOOOOOO                     ",
"                                               ...OOOOOOOOOOOOOOO......oooooooooooooooooo......o...OOOOOOOO                     ",
"                                               ...OOOOOOOOOOOOOOOO.....oooooooooooooooooo......o...OOOOOOOO                     ",
"                                                  OOOOOOOOOOOOOOOOOOO..ooooooooooooooooooo...........OOOOOOOOO                  "
};
