/* XPM */
static char *_b097720e4214ed6c95a126edff2e84d292np0YEd9cUdHEF[] = {
/* columns rows colors chars-per-pixel */
"128 128 7 1 ",
"  c None",
". c black",
"X c gray15",
"o c #464646",
"O c #9C5A3C",
"+ c #E5AA7A",
"@ c #B4B4B4",
/* pixels */
"                                                                                                                                ",
"                                                                                                                                ",
"                                                                                                                                ",
"                                                                                                                                ",
"                                                                                                                                ",
"                                                                                                   .....                        ",
"                                                                                                   .....                        ",
"                                                                                                   .....                        ",
"                                                                                                  XXXX..                        ",
"                                                                                                ..XXXXXX...                     ",
"                                                                                                ...XXXXX...                     ",
"                                                                                                ...XXXXX...                     ",
"                                                                                                ...XXXX....                     ",
"                                                                                                ..XXXXX..                       ",
"                                                                                                .XXXXXX.                        ",
"                                                                                                .XXXXX..                        ",
"                                                                                                .XXXXX..                        ",
"                                                                                             ...XXXXXX..                        ",
"                                                                                             ...XXXXX...                        ",
"                                                                                             ...XXXXX...                        ",
"                                                                                             ..XXXXX.o..                        ",
"                                                                                             .XXXXXX.o..                        ",
"                                                                                          ...XXXXXX...                          ",
"                                                                                          ...XXXXX....                          ",
"                                                                                          ..XXXXXX....                          ",
"                                                                                          .XXXXXX.....                          ",
"                                                                                          .XXXXXX..                             ",
"                                                                                          .XXXXXX..                             ",
"                                                                                          XXXXXXX..                             ",
"                                                                                          XXXXXXX..                             ",
"                                                                                       ...XXXXXX...                             ",
"                                                                                       ..XXXXXXX...                             ",
"                                                                                       ..XXXXXX....                             ",
"                                                                                    ...ooXXXXX..                                ",
"                                                                                    ..oooXXXXX..                                ",
"                                                                                    ...oXXXXX...                                ",
"                                                                                    ..XXXXXX....                                ",
"                                                                                    ..XXXXXX..                                  ",
"                                                                                    .XXXXXX..                                   ",
"                                                                                    .XXXXXX..                                   ",
"                                                                                    .XXXXXX.@                                   ",
"                                                                                  ..XXXXXX......                                ",
"                                                                                  ..XXXXXX......                                ",
"                                                                                  ..XXXXX.......                                ",
"                                                                                  .XXXXXX.......                                ",
"                                                                                  .XXXXXX..OO...                                ",
"                                                                               ...XXXXXX..OOO...                                ",
"                                                                               ...XXXXX..OOOO...                                ",
"                                                                               ...XXXXX..OOOO...                                ",
"                                                                               ...XXXX...OOOO...                                ",
"                                                                               ..XXXXX..OOOOO...                                ",
"                                                                               ..XXXXX..OOOOO...                                ",
"                                                                               ..XXXX..OOOOOO...                                ",
"                                                                               .XXXXX.OOOOOOO...                                ",
"                                                                  ++++      ...XXXXXX.OOOOO..                                   ",
"                                                                  ++++      ...XXXXX.OOOOO...                                   ",
"                                                                  ++++      ...XXXXX.OOOOOO..                                   ",
"                                                                  ++++      ..XXXXX.OOOOOO...                                   ",
"                                                               +++++++++++++..XXXX..OOOO.....                                   ",
"                                                               +++++++++++++.XXXXX.OOOOO.....                                   ",
"                                                               +++++++++++++.XXXX..OOOO......                                   ",
"                                                               +++++++++++++.XXXX..OOOO......                                   ",
"                                                               ++++++++++...XXXX..OOOOO....+++++                                ",
"                                                               ++++++++++...XXXX..OOOO.....+++++                                ",
"                                                               ++++++++++...XXX..OOOO.....++++++                                ",
"                                                               ++++++++++XXXXXX..OOOO.....++++.+                                ",
"                                                              ....++++...XXXXXX.OOOO.......++...+++                             ",
"                                                              ....++++...XXXXX..OOOO............+++                             ",
"                                                              ....++++...XXXX..OOOOO..........+++++                             ",
"                                                              ....++++..XXXXX..OOOOO..........+++++                             ",
"                                                              ....++++.XXXXX..OOOOOO..........+++++                             ",
"                                                           ...........XXXXXX..OOOOO................                             ",
"                                                           ..........XXXXXXX..OOOOOO............++++                            ",
"                                                          ..........XXXXXXXX.OOOOOOO............++++                            ",
"                                                          ..........XXXXXXX..OOOOOO.............++++                            ",
"                                                        ...oooo....XXXXXXX..OOOOOO...............+++                            ",
"                                                      ....ooooo....XX.XXX...OOOOOO................++                            ",
"                                                     ....oooooo...XXXXXXX..OOOOOO..................                             ",
"                                                     ...oo.oooo...XXXXXXX..OOOOO..................++                            ",
"                                              +++++++..oo.ooooo...XXXXXX..OOOOO...................++.                           ",
"                                              +++++++.ooooooooo...XXXXXX..OOOO....................+..                           ",
"                                              +++++++..oooooooo..XXXXXX..OOOO.... ...................                           ",
"                                              ++++++...oooooooo..XXX.....OOOO...   ..................                           ",
"                                              ++++++...oooooooo.XXXX....OOOOO..    .................                            ",
"                                              ++++++...ooooooooXXXX....OOOOOO...    ...............                             ",
"                                              ++++++...ooooooo.XXXX...OOOOOOO...     ..............                             ",
"                                              ++++++...ooooooo.XXX...OOOOOOO...       ...........                               ",
"                                              ++++++...oooooooXXXX...OOOOOOO...        .........                                ",
"                                              +++++....oooooo.XXXX..OOOOOOOO..           .......                                ",
"                                              +++++.....ooooo.XXXX..OOOOOOOO..            ....                                  ",
"                                             ++++.......ooooo.XXX...OOOOOOO..              ...                                  ",
"                                             ++++.......oooo..XXX..OOOOOOOO..               ..                                  ",
"                                             ++++.......oooo..XX...OOOOOOO..                                                    ",
"                                             ++++.......oooo..XX...OOOOOO...                                                    ",
"                                             ++++.....oooooo..X...OOOOOOO..                             .                       ",
"                                             ++++....ooooooo..X...OOOOOOO...                                                    ",
"                                      +++++++++++...ooooooo.......OOOOOO....                                                    ",
"                                      +++++++++++..oooooooo......OOOOOO....+                                                    ",
"                                      +++++++++++..oooooooo......OOOOOO....+                                                    ",
"                                    ++++++++++.....oooooo......OOOOOOO......+ +                                                 ",
"                                  ++++++++++++....ooooooo....OOOOOOOOO......+++                                                 ",
"                                 +++++++++++++....ooooooo...OOOOOOOOO.......+++                                                 ",
"                                 +++++++++++++...ooooooo....OOOOOOOO........+++                                                 ",
"                                +++++++++++++....ooooooo....OOOOOOOO.....+++...+++                                              ",
"                              +++++++++++++++....ooooooo...OOOOOOOO......+++...+++                                              ",
"                              +++++++++++++++...oooooooo...OOOOOOO.......+++...+++                                              ",
"                            +++++++++++++++++..ooooooooo...OOOOOOO.......+++...+++                                              ",
"                            +++++++++++++++...oooooooooo...OOOOOO........+++++++++++                                            ",
"                           ++++++++++++++++..oooooooooooo..OOOOO.........+++++++++++                                            ",
"                          +++++++++++++++++..oooooooooooo..OOOO..........+++++..++++                                            ",
"                         ++++++++++++++++++...ooooooooooo..OOO...........+++++..++++                                            ",
"                        +++++++++++++++++++ ......ooooooo..OOO.....++++++++++++...++                                            ",
"                       +++++++++++++++++++............oo...OO.....+++++++++++++...++                                            ",
"                      +++++++++++++++++++...O........oo....OO.....+++++++++++++...++                                            ",
"                     ++++++++++++++++++....OOOO...........OO......+++++++++++++...++                                            ",
"                    ++++++++++++++++++....OOOO...........OO....+++++++++++++++++++..                                            ",
"                   ++++++++++++++++++....OOOO.....OOOOOOOOO....+++++++++++++++++++..                                            ",
"                   ++++++++++++++++.....OOOO...OOOOOOOOOOO.....+++++++++++++++++++..                                            ",
"                  ++++++++++++++++....OOOOO...OOOOOOOOOOOO.....+++++++++++++++++++..                                            ",
"                  +++++++++++++++....OOOOO...OOOOOOOOOOOOOOO...+++++++++++++++++++..                                            ",
"                  +++++++++++++.....OOOO....OOOOOOOOOOOOOOOO.. +++++++++++++++++++++                                            ",
"                  ++++++++++++....OOOO.....OOOOOOOOOOOOOOOOOO..+++++++++++++++++++++                                            ",
"                  ++++++++++....OOOOO.....OOOOOOOOOOOOOOOOOOO..+++++++++++++++++++++                                            ",
"                  +++++++++.....OOO.....OOOOOOOOOOOOOOOOOOOOO..+++++++++++++++++++++                                            ",
"               ++++++++++++............OOOOOOOOOOOOOOOOOOOOOO..+++++++++++++++++++..                                            ",
"              +++++++++++++...........OOOOOOOOOOOOOOOOOOOOOOO..+++++++++++++++++++..                                            ",
"              +++++++++++++.....O...OOOOOOOOOOOOOOOOOOOOOOOOO..+++++++++++++++++++..                                            ",
"             ++++++++++++++.....OOOOOOOOOOOOOOOOOOOOOOOOOOOOO..+++++++++++++++++++..                                            "
};
