/* XPM */
static char *_717579061f1418ee97d7647e239e393arfxrAWeC52yzzMV[] = {
/* columns rows colors chars-per-pixel */
"128 128 5 1 ",
"  c None",
". c black",
"X c #464646",
"o c #9C5A3C",
"O c #E5AA7A",
/* pixels */
"                                                                                                                                ",
"                                                                                                                                ",
"                                                                                                                                ",
"                                                                                                                                ",
"                                                                                ....                                            ",
"                                                                                .....                                           ",
"                                                                               ......                                           ",
"                                                                               ......                                           ",
"                                                                              ........                                          ",
"                                                                              .........                                         ",
"                                                                             ....XXX...                                         ",
"                                                                             ....XXX...                                         ",
"                                                                             ...XXXX...                                         ",
"                                                                             ...XXXX...                                         ",
"                                                                            ...XXXXX...                                         ",
"                                                                            ...XXXX...                                          ",
"                                                                           ...XXXXX...                                          ",
"                                                                           ...XXXX...                                           ",
"                                                                          ...XXXXX...                                           ",
"                                                                          ...XXXX....                                           ",
"                                                                         ....XXXX....                                           ",
"                                                                         ....XXXX...                                            ",
"                                                                         ...XXXXX...                                            ",
"                                                                         ...XXXX...                                             ",
"                                                                        ...XXXXX...                                             ",
"                                                                        ...XXXX...                                              ",
"                                                                       ...XXXXX...                                              ",
"                                                                       ...XXXX...                                               ",
"                                                                      ...XXXXX...                                               ",
"                                                                      ...XXXX....                                               ",
"                                                                     ....XXXX....                                               ",
"                                                                     ....XXXX...                                                ",
"                                                                     ....XXXX...                                                ",
"                                                                     ...XXXXX..                                                 ",
"                                                                    ....XXXX...                                                 ",
"                                                                    ...XXXXX..                                                  ",
"                                                                   ....XXXX...                                                  ",
"                                                                   ...XXXXX..                                                   ",
"                                                                  ....XXXX...                                                   ",
"                                                                  ...XXXXX...                                                   ",
"                                                                 ....XXXX....                                                   ",
"                                                                 ....XXXX...                                                    ",
"                                                                 ....XXXX...                                                    ",
"                                                                 ...XXXXX..                                                     ",
"                                                                ....XXXX..oo                                                    ",
"                                                                ...XXXXX.ooo                                                    ",
"                                                               ....XXXX..oo                                                     ",
"                                                               ...XXXXX..ooo                                                    ",
"                                                              ....XXXX...oooo                                                   ",
"                                                              ....XXXX..ooooo                                                   ",
"                                                             ....XXXX...oooo                                                    ",
"                                                             ....XXXX..ooooo                                                    ",
"                                                      OOO    ....XXXX..oooo                                                     ",
"                                                      OOO    ....XXXX.ooooo                                                     ",
"                                                      OOO   ....XXXXX.oooo..                                                    ",
"                                                      OOO   ....XXXX.oooo...                                                    ",
"                                                      OOO  ....XXXXX.oooo...                                                    ",
"                                                     OOOOO ....XXXX..oooo...                                                    ",
"                                                    OOOOOO....XXXXX..ooo....                                                    ",
"                                                    OOOOOO....XXXX..oooo....                                                    ",
"                                                    OOOOOO...XXXXX..ooo...OOO                                                   ",
"                                                    OOOOO....XXXX..oooo...OOOO                                                  ",
"                                                    OOOOO....XXXX..oooo...OOOO                                                  ",
"                                              ..    OOOOO....XXXX.ooooo...OOOO                                                  ",
"                                             ....   OOOO....XXXXX.ooo.....OOOO                                                  ",
"                                             ....   OOOO....XXXXX.ooo.....OOOO                                                  ",
"                                             ....... OO ....XXXX.oooo.....OOO OOO                                               ",
"                                            .........OO....XXXXX.oooo....... OOOO                                               ",
"                                            ..XXX....OO....XXXX..oooo.......OOOOO                                               ",
"                                            ..XXXX........XXXXX..oooo.......OOOOO                                               ",
"                                            ..XXXXXXX.....XXXX..ooooo.......OOOOO                                               ",
"                                            ..XXXXXXXXXX..XXXX..ooooo.......OOO                                                 ",
"                                            ..XXXXXXXXXX..XXX..oooooo.........                                                  ",
"                                            ..XXXXXXXXXX..XXX..ooooo..........OOOO                                              ",
"                                            ..XXXXXXXXXX..XXX.ooooo...........OOOO                                              ",
"                                            ..XXXXXXXXX..XXXXoooooo...........OOOO                                              ",
"                                            ..XXXXXXXXX..XXXXooooo............OOOO                                              ",
"                                            ..XXXXXXXX..XXXX.ooooo..............                                                ",
"                                            ..XXXXXXX...XXXX.oooo..............OOO                                              ",
"                                      OOOOOO .XXXXXXX..XXXX.ooooo..............OOO                                              ",
"                                      OOOOOO .XXXXXXX..XXXX.ooooo..............OOO.                                             ",
"                                      OOOOO  .XXXXXXX..XXX.ooooo ..............OOO.                                             ",
"                                      OOOOO ..XXXXXXX..XXX.oooo ...............OOO.                                             ",
"                                     OOOOOO  .XXXXXXX.XXX.ooooo....................                                             ",
"                                     OOOO OO .XXXXXX..XXX.ooooo.. ................                                              ",
"                                     OOOOOOO .XX XXX.XXXXooooo .. ...............                                               ",
"                                     OOOOOOO .XXXXXX.XXXXooooo...   .............                                               ",
"                                     OOOOOOO .XXXXX..XXX.ooooo...    ............                                               ",
"                                     OOOO OO .XXXXX..XXX.oooo...       ..........                                               ",
"                                     OOOOOOO..XXXX..XXX.ooooo...         ........                                               ",
"                                    OOOOOOOO..XXXX..XXX.ooooo..          ........                                               ",
"                                    OO OOOO...XXXX.XXX.oooooo..           .......                                               ",
"                                    OOOOOOO.. XXX..XXX.oooooo..            ......                                               ",
"                                     OOOOO...XXXX  ...oooooo..                                                                  ",
"                                     OOOOO.XXXXXX  ...oooooo..                                                                  ",
"                                  OOOOOOOO.XXXXXXX...ooooooo..                                                                  ",
"                               OOOOOOOOOO.XXXXXXXX...oooooo...                                                                  ",
"                              OOOOOOOOOO..XXXXXXXX...ooooo ..OOO                                                                ",
"                             OOOOOOOOOOO..XXXXXXXX..oooooo...OOOO                                                               ",
"                             OOOOOOOOO....XXXXXXXX oooooo... O OO                                                               ",
"                             OOOOOOOOO...XXXXXXXX ooooooo...OOOOO                                                               ",
"                            OOOOOOOOOO.. XXXXXXXX oooooo... OOO..                                                               ",
"                            OOOOOOOOO.. XXXXXXXXXoooooo.... OOO..                                                               ",
"                           OOOOOOOOOO..XXXXXXXXX oooo.....OOOO...OO                                                             ",
"                          OOOOOOOOOO..XXXXXXXXX  oooo.....OOOO..OOO                                                             ",
"                          OOOOOOOOOO..XXXXXXXXX  ooooOOO..OOO...OOO                                                             ",
"                         OOOOOOOOOO...XXXXXXXXX  ooooOOO.OOOO..OOO.                                                             ",
"                         OOOOOOOOO...XXXXXXXXXX  oooOOOO.OOOOOOOO.OOO                                                           ",
"                        OOOOOOOOOO...XXXXXXXXXX  oooOOO..OOOOOOOO.OOO                                                           ",
"                       OOOO OOOOOO...XXXXXXXXXX ooooOOOOOOOOOOO..O O.                                                           ",
"                      OOOOOOOOOOOO....XXXXXXXXX ooooOOOOOOOOOOO..OO..                                                           ",
"                     OOOOOOOOOOOOO.... XXXXXXXX oooOOOOOOOOOOOOOO ...                                                           ",
"                    OOOOOOOOOOOOOO......XXXXXX  oo OOOOOOOOOOOOOO....                                                           ",
"                  OOOOOOOOOOOOOOOO.......XXXXX  oo .OOOOOOOOOOOOO...O                                                           ",
"                  OOOOOOOOOOOOOOO... o...XX...  o  ..OOOOOOOOOOOO..OO                                                           ",
"                 OOOOOOOOOOOOOOO... o.....X......  ..OOOOOOOOOOOO.OO                                                            ",
"                 OOOOOOOOOOOOOO...oo..  .......oo....OOOOOOOOOOOOOOO                                                            ",
"                OOOOOOOO OOOOO... o... ooooooooo......OOOOOOOOOOOOOO                                                            ",
"               OOOOOOOOOOOOOO...oo...  ooooooooo......OOOOOOOOOOOOO.                                                            ",
"               OOOOOOOOOOOOO...ooo..  oooooooooo......OOOOOOOOOOOOO.                                                            ",
"              OOOOOOOOOOOOO...oooo..oooooooooooo......OOOOOOOOOOOO...                                                           ",
"              OOOOOOOOOOOO...oooo.. oooooooooooo.....OOOOOOOOOOOOO...                                                           ",
"              OOOOOOOOOOO...oooo.. ooooooooooooo.....OOOOOOOOOOOOOO..                                                           ",
"              OOOOOOOOO....oo o...oooooooooooooo.....OOOOOOOOOOOOOO..                                                           ",
"              OOOOOOOOO...... ... oooooooooooooo.....OOOOOOOOOOOOOO..                                                           ",
"             OOOOOOOOOO.. ......oooooooooooooooo....OOOOOOOOOOOOOOO..                                                           ",
"            OOOOOOOOOO....  .. ooooooooooooooooo..OOOOOOOOOOOOOOOOO                                                             ",
"            OOOOOOOOOO.....    oooooooooooooooooo.OOOOOOOOOOOOOOOOO                                                             "
};
