/* XPM */
static char *_2b9a60da46d4e2cc26f96c4234fb96777pqYdVBDxLt5Iyr[] = {
/* columns rows colors chars-per-pixel */
"32 32 2 1 ",
"  c None",
". c #FF7E00",
/* pixels */
"                                ",
"                                ",
"                                ",
"                                ",
"    ..                    ..    ",
"   ....                  ....   ",
"   .....                .....   ",
"  ......                ......  ",
" ......                  ...... ",
" ......        ..        ...... ",
" .....         ..         ..... ",
".....                      .....",
".....                      .....",
".....                      .....",
"....                        ....",
"....     ..    ..    ..     ....",
"....     ..    ..    ..     ....",
"....                        ....",
".....                      .....",
".....                      .....",
".....                      .....",
" .....         ..         ..... ",
" ......        ..        ...... ",
" ......                  ...... ",
"  ......                ......  ",
"   .....                .....   ",
"   ....                  ....   ",
"    ..                    ..    ",
"                                ",
"                                ",
"                                ",
"                                "
};
