/* XPM */
static char *result[] = {
/* columns rows colors chars-per-pixel */
"32 32 15 1 ",
"  c black",
". c #2C2C2B",
"X c #3E2723",
"o c #3F3F3E",
"O c gray30",
"+ c #5A5A59",
"@ c #676767",
"# c #6A6A6A",
"$ c gray43",
"% c #747474",
"& c #8F6557",
"* c #F7C863",
"= c #818181",
"- c gray54",
"; c None",
/* pixels */
"$$$$$$+$$$$$$+$+$$$+$$$$+$###$$+",
"$$$$$+$$$$$$$+$$+$$+$$$$+###=$$+",
"$$$$$+$$$$$$+ooooo$+$$$$+$###$$+",
"+@@@@+@@@@@@oo;;;oo+@@@@+@%@%@@+",
"+++++++++oooo;;;;;oooo++++++++++",
"--+-----oo;;;;;;;;;;;oo----+----",
"$$+$$oooo;;;;;;;;;;;;;oooo$+$$$$",
"$$++ooX;;;;;;;;;;;;;;;;;;oo+$$$$",
"@@+@..XX;;;;;;;;;;;;;;;;;..+@@@@",
"++++ooX&X;;;;;;;;;;;;;;;;oo+++++",
"----ooX&X;;;;;;;;;;;;;;;;oo---+-",
"$$$$..X&X;;;;;;;;;;;;;;;;..$$$+$",
"$$$$ooX&X;;;;;;;;;;;;;;;;oo$$$+$",
"@@@@ooX&X;;;;;;;;;;;;;;;;oo@@@+@",
"++++..X&X;;;;;;;;;;;;;;;;..+++++",
"--+-ooO    ;;;;;;;;;;;;;;oo+----",
"$$+$ooO  O  ;;;;;;;;;;;;;oo+$$$$",
"$$+$..     ;;;;;;;;;;;;;;..+$$$$",
"@@+@ooX&X;;;;;;;;;;;;;;;;oo+@@@@",
"++++ooX&*;;;;;;;;;;;;;;;;oo+++++",
"----..X&X;;;;;;;;;;;;;;;;..----+",
"$$$$ooO    ;;;;;;;;;;;;;;oo$$$$+",
"$$$$ooO  O  ;;;;;;;;;;;;;oo$$$$+",
"@@@@..     ;;;;;;;;;;;;;;..@@@@+",
"++++ooX&X;;;;;;;;;;;;;;;;oo+++++",
"-+--ooX&X;;;;;;;;;;;;;;;;oo-+---",
"$+$$..X&X;;;;;;;;;;;;;;;;..$+$$$",
"$+$$ooX&X;;;;;;;;;;;;;;;;oo$+$$$",
"@+@@ooX&X;;;;;;;;;;;;;;;;oo@+@@@",
"++++..X&X;;;;;;;;;;;;;;;;..+++++",
"----ooX&X;;;;;;;;;;;;;;;;oo----+",
"$$$$ooXXX;;;;;;;;;;;;;;;;oo$$$$+"
};
