/* XPM */
static char *result[] = {
/* columns rows colors chars-per-pixel */
"32 32 21 1 ",
"  c black",
". c #2C2C2B",
"X c #3E2723",
"o c #3A3A3A",
"O c #3E3E3E",
"+ c #3F3F3E",
"@ c gray30",
"# c gray33",
"$ c #5A5A59",
"% c #676767",
"& c #6A6A6A",
"* c gray43",
"= c #747474",
"- c gray46",
"; c #8F6557",
": c #FFDA05",
"> c #818181",
", c gray51",
"< c #878587",
"1 c gray54",
"2 c #8D8D8D",
/* pixels */
"******$******$*$***$****$*&&&**$",
"*****$*******$**$**$****$&&&>**$",
"*****$******$+++++*$****$*&&&**$",
"$%%%%$%%%%%%++;;;++$%%%%$%=%=%%$",
"$$$$$$$$$++++X;;;X++++$$$$$$$$$$",
"11$11111++;;;X;;;X;;;++1111$1111",
"**$**++++X;;;X;;;X;;;X++++*$****",
"**$$++;;;X;;;X;;;X;;;X;;;++$****",
"%%$%..;;;X;;;X;;;X;;;X;;;..$%%%%",
"$$$$++;;;X;;o#o#o#o;;X;;;++$$$$$",
"1111++;;;X;;#-,-,2#;;X;;;++111$1",
"****..;;;X;;o,,OO,o;;X;;;..***$*",
"****++;;;X;;#2,-2,#;;X;;;++***$*",
"%%%%++;;;X;;o#o#o#o;;X;;;++%%%$%",
"$$$$..;;;X;;;X;;;X;;;X;;;..$$$$$",
"11$1++@    ;;X;;;X;;;X;;;++$1111",
"**$*++@  @  ;X;;;X;;;X;;;++$****",
"**$*..     ;;X;;;X;;;X;;;..$****",
"%%$%++;;;X;;;X;;;X;;;<;;;++$%%%%",
"$$$$++;;;X;;;X;;;X;;<:<;;++$$$$$",
"1111..;;;X;;;X;;;X;;;<;;;..1111$",
"****++@    ;;X;;;X;;;X;;;++****$",
"****++@  @  ;X;;;X;;;X;;;++****$",
"%%%%..     ;;X;;;X;;;X;;;..%%%%$",
"$$$$++;;;X;;;X;;;X;;;X;;;++$$$$$",
"1$11++;;;X;;;X;;;X;;;X;;;++1$111",
"*$**..;;;X;;;X;;;X;;;X;;;..*$***",
"*$**++;;;X;;;X;;;X;;;X;;;++*$***",
"%$%%++;;;X;;;X;;;X;;;X;;;++%$%%%",
"$$$$..;;;X;;;X;;;X;;;X;;;..$$$$$",
"1111++;;;X;;;X;;;X;;;X;;;++1111$",
"****++;;;X;;;X;;;X;;;X;;;++****$"
};
