/* XPM */
static char *_fb44300d2db436cb6493852cb066d09nluXL3NOuygBOOHf[] = {
/* columns rows colors chars-per-pixel */
"32 32 5 1 ",
"  c None",
". c black",
"X c gray30",
"o c #E61717",
"O c #838383",
/* pixels */
"                                ",
"                                ",
"          ....    ....          ",
"          ....    ....          ",
"              ....              ",
"              ....              ",
"              XXXX              ",
"              XXXX              ",
"              OOOO              ",
"              OOOO              ",
"  ..                        ..  ",
"  ..                        ..  ",
"  ..        oo    oo        ..  ",
"  ..        oo    oo        ..  ",
"    ..XXOO    oooo    OOXX..    ",
"    ..XXOO    o  o    OOXX..    ",
"    ..XXOO    o  o    OOXX..    ",
"    ..XXOO    oooo    OOXX..    ",
"  ..        oo    oo        ..  ",
"  ..        oo    oo        ..  ",
"  ..                        ..  ",
"  ..                        ..  ",
"              OOOO              ",
"              OOOO              ",
"              XXXX              ",
"              XXXX              ",
"              ....              ",
"              ....              ",
"          ....    ....          ",
"          ....    ....          ",
"                                ",
"                                "
};
