/* XPM */
static char *_418cf9c8bd64b18c8cd7332e94372f2QilEbyP215WLgyco[] = {
/* columns rows colors chars-per-pixel */
"32 32 3 1 ",
"  c None",
". c black",
"X c #D41515",
/* pixels */
"            ........            ",
"              ....              ",
"              ....              ",
"              ....              ",
"              ....              ",
"              ....              ",
"              ....              ",
"              ....              ",
"              ....              ",
"              ....              ",
"              ....              ",
"              ....              ",
".             ....             .",
".            X....X            .",
"..............X  X..............",
"..............    ..............",
"..............    ..............",
"..............X  X..............",
".            X....X            .",
".             ....             .",
"              ....              ",
"              ....              ",
"              ....              ",
"              ....              ",
"              ....              ",
"              ....              ",
"              ....              ",
"              ....              ",
"              ....              ",
"              ....              ",
"              ....              ",
"            ........            "
};
