/* XPM */
static char *d28f91d950b74bffadb01fe4f5dc0772jsdB7BsIs6PZnlzj[] = {
/* columns rows colors chars-per-pixel */
"32 32 36 1 ",
"  c #006128",
". c #006228",
"X c #2E6F31",
"o c #2F7032",
"O c #B20707",
"+ c #FF0A0A",
"@ c #FF5454",
"# c #008B3A",
"$ c #07B229",
"% c #0AFF3B",
"& c #43A047",
"* c #00C853",
"= c #54FF76",
"- c #B2A406",
"; c #FFEB0A",
": c #FFF153",
"> c #0623B2",
", c #0A33FF",
"< c #5370FF",
"1 c #2D89B2",
"2 c #4DD887",
"3 c #40C4FF",
"4 c #59CCFF",
"5 c #6ED2FF",
"6 c #81D8FF",
"7 c #92DDFF",
"8 c #ACE5FF",
"9 c #BCEAFF",
"0 c #CCEFFF",
"q c #D8F3FF",
"w c #E7F8FF",
"e c #EDF9FF",
"r c #F2FBFF",
"t c #F7FCFF",
"y c #FBFEFF",
"u c white",
/* pixels */
"wwuuuu8ew35533333333345558r3w335",
"wuuuuuuuyy574333333455557ewwu3e3",
"uuuuuuuuuyy5533333467qrreueuuuww",
"5uuuuuuuuuut54333339wwwwu3uuuuuu",
"55uuuuuuuuuu9333339wwuuuuuuuuuuw",
"yuuuuuuuuuuu93333333uuuuuuuuuue3",
"3wyuuuuuuuu33333333uuuuuuuuuuw53",
"3335euuuuue433333345uuuuuuuur5ww",
"333333wyytyw333339wwwuuuuuur73ww",
"3333333354wt93333339tuuuuyr53ww3",
"33333333333+333333333450tuutuw33",
"3333333333@+O3$3=333333333311113",
"3333333333@+O3$%=333333333333133",
"3333333333@3O3$%=333333333331333",
"33333333333,333%3333333333311113",
"3333333333<,>3-3:333333333333333",
"3333333333<,>3-;:333333333331133",
"3333333333<3>3-;:333333333313313",
"333333333333333;3333333333313313",
"33333333333333333333333333331133",
"33333333322222333333333333333333",
"333332*22222**#####3333333313313",
"32222***22222*****######33313313",
"2*********2222*****######*# #313",
"***********2222222****###***  ##",
"*************22222222***********",
"****************222222222*******",
"&&&****      *****2222222*&&XXX&",
"&&&&&&&o   *****&&&&&&&&&&&&&X&&",
"&&&&&&&&&&&&&&&&&&&&&&&&&&&&&X&&",
"&&&&&&&&&&&&&&&&&&&&&&&&&&&&XXX&",
"&&&&&&&&&&&&&&&&&&&&&&&&&&&&&&&&"
};
